<?xml version="1.0" encoding="UTF-8"?>
<!DOCTYPE svg PUBLIC "-//W3C//DTD SVG 1.1//EN" "http://www.w3.org/Graphics/SVG/1.1/DTD/svg11.dtd">
<svg version="1.1" xmlns="http://www.w3.org/2000/svg" xmlns:xlink="http://www.w3.org/1999/xlink" x="0px" y="0px" width="128" height="128" viewBox="0, 0, 128, 128">
  <g id="Background">
    <rect x="0" y="0" width="128" height="128" fill="#000000" fill-opacity="0"/>
  </g>
  <g id="Background">
    <path d="M18.093,6 L109.907,6 C116.561,6 122,11.439 122,18.093 L122,109.907 C122,116.561 116.561,122 109.907,122 L18.093,122 C11.439,122 6,116.561 6,109.907 L6,18.093 C6,11.439 11.439,6 18.093,6" fill="#727272"/>
    <path d="M16.071,45.978 L14.418,44.636 L16.696,41.146 L19.263,42.774 z M111.931,45.978 L113.584,44.636 L111.305,41.146 L108.737,42.774 z M64,70.589 L64.015,70.614 L65.978,66.133 L69.371,70.335 L70.855,65.676 L74.664,69.499 L75.655,64.704 L79.844,68.105 L80.327,63.241 L84.845,66.188 L84.82,61.297 L89.625,63.754 L89.082,58.89 L94.12,60.831 L93.077,56.054 L98.289,57.461 L96.746,52.816 L102.08,53.67 L100.065,49.212 L105.451,49.5 L102.979,45.281 L108.67,41.599 L110.761,40.27 L107.104,34.712 L103.522,36.804 C92.791,42.682 79.025,46.212 64.015,46.212 L64,46.212 L63.987,46.212 C48.975,46.212 35.211,42.682 24.478,36.804 L20.898,34.712 L17.239,40.27 L19.332,41.599 L25.022,45.281 L22.551,49.5 L27.935,49.212 L25.921,53.67 L31.256,52.816 L29.712,57.461 L34.923,56.054 L33.882,60.831 L38.918,58.89 L38.375,63.754 L43.18,61.297 L43.157,66.188 L47.673,63.241 L48.158,68.105 L52.345,64.704 L53.336,69.499 L57.145,65.676 L58.63,70.335 L62.023,66.133 L63.987,70.614 z M106.116,33.2 L100.572,24.715 L94.485,28.428 L101.755,35.749 z M21.884,33.2 L27.428,24.715 L33.516,28.428 L26.245,35.749 z" fill="#EBECEC"/>
    <path d="M39.234,120.218 L40.988,97.439 L23.679,111.241 z" fill="#84D0F4"/>
    <path d="M61.794,91.484 L55.812,80.245 L53.821,93.946 z" fill="#84D0F4"/>
    <path d="M114.594,94.407 L96.253,89.854 L106.131,106.728 z" fill="#84D0F4"/>
    <path d="M110.318,69.384 L109.25,84.679 L99.686,76.947 z" fill="#84D0F4"/>
    <path d="M86.867,108.536 L80.902,95.024 L78.062,107.856 z" fill="#84D0F4"/>
    <path d="M78.93,122 L70.564,122 L70.564,101.6 z" fill="#84D0F4"/>
    <path d="M38.042,104.421 L36.817,84.634 L25.254,102.462 z" fill="#84D0F4"/>
    <path d="M66.571,103.572 L49.547,100.028 L59.671,114.798 z" fill="#84D0F4"/>
    <path d="M17.637,68.964 L20.386,83.478 L26.058,71.617 z" fill="#84D0F4"/>
    <path d="M83.899,77.295 L76.779,99.522 L97.321,84.619 z" fill="#84D0F4"/>
  </g>
  <defs/>
</svg>
